<?xml version="1.0" encoding="UTF-8" standalone="no"?>
<!-- Created with Inkscape (http://www.inkscape.org/) -->
<svg
   xmlns:svg="http://www.w3.org/2000/svg"
   xmlns="http://www.w3.org/2000/svg"
   version="1.0"
   width="636"
   height="136"
   id="svg2842">
  <defs
     id="defs2844" />
  <g
     transform="translate(-342.31831,-233.26949)"
     id="layer1">
    <path
       d="M 790.91084,279.14078 C 793.08234,279.14078 795.19074,277.18404 795.19074,274.57605 C 795.19074,271.96608 793.08234,270.00735 790.91084,270.00735 C 788.74363,270.00735 786.63919,271.96608 786.63919,274.57605 C 786.63919,277.18404 788.74363,279.14078 790.91084,279.14078"
       id="path173"
       style="fill:#14356f;fill-opacity:1;fill-rule:evenodd;stroke:none" />
    <path
       d="M 825.59648,301.13308 C 823.89615,304.74389 820.41322,307.00494 816.19147,307.00494 C 809.11489,307.00494 805.71225,300.45572 805.71225,294.19364 C 805.71225,288.74703 807.10133,280.3055 813.35119,280.43238 C 820.67655,280.58008 816.85527,288.98823 821.49698,289.71184 C 824.33363,290.15295 825.57665,287.8734 825.53338,286.23849 C 825.40814,281.38068 817.6073,279.2323 813.79494,279.2323 C 805.76347,279.2323 798.20218,286.5547 798.1351,295.58073 C 798.07595,304.48187 804.2399,312.18293 813.28774,312.18293 C 819.96022,312.18293 824.7787,307.26035 826.73279,301.19585 C 826.92113,300.37873 826.22824,299.93367 825.59648,301.13308"
       id="path175"
       style="fill:#14356f;fill-opacity:1;fill-rule:evenodd;stroke:none" />
    <path
       d="M 771.82357,291.84172 C 771.79185,288.81145 771.8695,286.39908 773.93428,285.73527 C 775.89102,285.1035 776.33643,285.2925 779.55602,287.18712 C 781.16119,288.13145 783.60925,286.80483 784.03715,284.5332 C 784.55062,281.77983 782.57934,279.85647 780.31037,279.92883 C 778.48645,279.98499 776.99329,280.96469 774.9404,283.01955 C 774.50855,283.45208 773.11683,284.70172 771.91708,285.48217 C 771.91708,285.48217 771.91708,281.44313 771.91708,280.62172 C 771.91708,280.24305 771.39535,280.11188 771.15977,280.17862 C 768.43513,280.96469 766.11098,283.33577 761.87864,284.40897 C 761.30868,284.66042 761.37575,285.2925 761.87864,285.2925 C 764.50448,286.11227 764.84547,287.12302 764.88115,288.95057 L 764.88115,306.92465 C 764.90892,308.3048 764.97995,310.14424 761.18344,310.65275 C 760.1195,310.84077 760.74763,311.47318 761.18344,311.48607 C 761.88525,311.47318 775.95445,311.48607 775.95445,311.48607 C 776.77753,311.53629 776.77753,310.96599 775.95445,310.77502 C 771.71288,310.4023 771.91708,308.75748 771.82357,306.86285"
       id="path177"
       style="fill:#14356f;fill-opacity:1;fill-rule:evenodd;stroke:none" />
    <path
       d="M 795.33018,280.24305 C 792.36072,281.63048 787.12358,283.71409 785.47909,284.38385 C 784.59688,284.84942 784.90879,285.41938 785.47909,285.41938 C 788.69869,285.96193 788.38644,287.98144 788.38644,288.76553 L 788.41288,306.92465 C 788.44063,308.3048 788.51035,310.14424 784.71549,310.65275 C 783.6499,310.84077 784.28332,311.47318 784.71549,311.48607 C 785.41565,311.47318 799.48485,311.48607 799.48485,311.48607 C 800.31058,311.53629 800.31058,310.96599 799.48485,310.77502 C 795.24857,310.4023 795.44615,308.75748 795.35529,306.86285"
       id="path179"
       style="fill:#14356f;fill-opacity:1;fill-rule:evenodd;stroke:none" />
    <path
       d="M 684.85322,307.38558 C 684.88098,308.7654 684.95069,310.14424 681.15584,310.65275 C 680.0909,310.84077 680.72299,311.47318 681.15584,311.48607 C 681.85699,311.47318 695.93049,311.48607 695.93049,311.48607 C 696.74959,311.53629 696.74959,310.96599 695.93049,310.77502 C 691.68892,310.4023 691.88518,308.75748 691.79167,306.86285 L 691.8062,288.83425 C 691.8062,287.18712 693.19562,283.84064 698.43638,283.84064 C 702.41462,283.84064 704.1384,286.74799 704.1384,289.81394 L 704.15294,306.94183 C 704.17542,308.32067 704.24645,310.15878 700.45523,310.66697 C 699.39095,310.85794 700.02338,311.48607 700.45523,311.5006 C 701.15572,311.48607 715.22857,311.5006 715.22857,311.5006 C 716.04668,311.55083 716.04668,310.98318 715.22857,310.79087 C 710.9883,310.41684 711.18458,308.77202 711.09139,306.87972 L 711.08214,288.83425 C 711.12147,286.3657 714.15404,283.58688 718.51159,283.58688 C 720.67649,283.58688 724.05932,286.3657 724.10558,289.81394 L 724.09897,306.92465 C 724.12243,308.3048 724.19248,310.14424 720.39993,310.65275 C 719.3373,310.84077 719.96675,311.47318 720.39993,311.48607 C 721.10174,311.47318 735.17095,311.48607 735.17095,311.48607 C 735.99237,311.53629 735.99237,310.96599 735.17095,310.77502 C 730.93465,310.4023 731.14513,308.75748 731.05163,306.86285 L 731.0427,289.81394 C 731.0427,284.53122 727.66088,279.92883 721.66544,279.92883 C 715.6657,279.92883 713.07688,283.65164 710.99755,285.79804 C 708.83002,283.05689 708.02677,279.92883 702.34754,279.92883 C 697.30272,279.92883 694.72149,282.61182 691.8062,285.48217 L 691.8062,280.43238 C 691.8062,278.47333 684.1068,283.84064 682.0255,284.66042 C 681.26422,284.97629 681.07455,285.60838 681.8963,285.86082 C 683.5061,286.25104 684.86644,287.46567 684.86644,289.48717"
       id="path181"
       style="fill:#14356f;fill-opacity:1;fill-rule:evenodd;stroke:none" />
    <path
       d="M 854.50477,306.62992 C 853.68567,307.95457 853.43653,307.95457 852.61114,307.89244 C 851.80789,307.83065 851.17713,307.34627 851.03637,305.99749 L 850.70958,287.09989 C 850.70958,282.99048 849.15827,279.59245 843.28145,279.92883 C 834.55874,280.42412 827.7442,284.59763 827.60708,288.05843 C 827.55322,290.15295 828.16813,291.60482 830.39745,291.60482 C 833.06393,291.60482 833.66332,289.19804 833.66332,286.78368 C 833.66332,286.39247 833.67092,282.47635 836.56538,282.1043 C 839.45488,281.73258 844.14649,281.24753 843.41032,288.46188 L 843.41032,291.80604 C 833.00083,295.26485 825.82282,298.37178 826.80383,305.64394 C 827.36488,309.84654 830.38953,311.88918 833.85825,311.84424 C 837.33723,311.80493 840.43589,310.1905 843.41032,307.38558 C 844.84698,310.69737 846.23374,311.74182 849.52074,311.74182 C 852.68085,311.74182 854.57184,309.52933 855.38963,306.8166 C 855.5175,305.99749 855.01064,305.9357 854.50477,306.62992 z M 843.41032,305.99749 C 841.8633,307.43679 841.01644,307.99653 838.84493,307.99653 C 835.93593,307.99653 833.57377,306.05168 833.57377,302.79508 C 833.57377,299.52989 835.21463,295.87579 843.41032,293.09797"
       id="path183"
       style="fill:#14356f;fill-opacity:1;fill-rule:evenodd;stroke:none" />
    <path
       d="M 760.41192,302.39825 C 758.26817,305.9357 756.25063,307.5726 750.88332,307.63439 C 744.72962,307.71369 739.71123,300.78449 740.3182,292.6856 C 740.34199,292.21575 740.60798,292.17015 740.94269,292.19527 C 741.38479,292.19527 761.16759,292.19527 761.16759,292.19527 C 762.33033,292.14934 762.33033,291.16734 762.23583,290.85509 C 761.07804,284.65447 754.10688,279.93345 747.91749,279.96848 C 739.92997,280.01473 732.86232,287.96493 732.91122,296.65624 C 732.95185,304.82054 739.19512,312.18293 747.81374,312.18293 C 754.92467,312.18293 759.12659,308.44557 761.42432,302.71578 C 761.73657,301.89437 760.98222,301.32472 760.41192,302.39825 z M 740.91064,289.20465 C 741.29128,285.50034 743.78693,280.98352 747.91749,281.0648 C 751.1992,281.12659 753.36674,285.23435 753.58944,288.61783 C 753.67899,289.94875 753.58944,290.09678 752.07878,290.14238 L 741.60353,290.09678 C 741.40198,290.11925 740.8016,289.9841 740.91064,289.20465"
       id="path185"
       style="fill:#14356f;fill-opacity:1;fill-rule:evenodd;stroke:none" />
    <path
       d="M 650.83238,311.48607 C 652.2274,311.48607 651.69278,310.54207 650.99627,310.41684 C 647.99112,310.15878 647.29459,308.39534 647.13467,306.87972 C 647.05107,306.10355 647.51894,304.10354 648.20522,302.14845 L 650.34963,295.5163 C 650.3536,295.01242 651.05012,295.01242 651.05012,295.01242 L 665.80594,295.01242 C 666.39673,295.01242 666.61249,295.60783 666.61249,295.60783 L 669.0252,302.21024 C 669.49902,303.38355 670.41824,305.827 670.31019,307.26035 C 670.20413,308.71023 669.72172,309.72032 666.82725,310.35108 C 665.80594,310.71719 666.23383,311.48607 666.88112,311.48607 C 667.79175,311.48607 683.64323,311.48607 683.64323,311.48607 L 683.64323,310.6435 C 680.37605,310.25097 679.81237,310.58932 678.33738,306.73763 L 664.35607,264.45799 C 663.88423,263.28368 663.7385,262.08658 663.4745,262.0988 C 662.85034,262.12788 663.154,262.2227 662.6402,262.63243 C 660.17858,264.59247 659.25672,265.40893 657.37895,266.987 C 657.00492,267.80743 658.13164,267.36567 657.4328,269.19817 L 647.72314,299.24309 C 645.08805,306.54665 644.9321,308.83413 641.01995,310.15878 C 639.62459,310.60385 639.67482,311.48607 640.69152,311.48607 C 641.93124,311.48607 650.83238,311.48607 650.83238,311.48607 z M 658.88467,271.84745 C 659.14867,272.54233 665.35227,291.77927 665.35227,291.77927 C 665.35227,291.77927 665.37738,292.42359 664.94685,292.43648 C 664.57017,292.48835 651.90755,292.43648 651.90755,292.43648 C 651.90755,292.43648 651.31479,292.42359 651.57218,291.78753 C 651.90755,290.90994 657.97139,271.97467 657.97139,271.97467 C 658.40028,270.71182 658.72012,271.21537 658.88467,271.84745"
       id="path187"
       style="fill:#14356f;fill-opacity:1;fill-rule:evenodd;stroke:none" />
    <path
       d="M 939.68954,306.92068 C 939.71564,308.30217 939.78668,310.14424 935.99547,310.64879 C 934.92623,310.83713 935.55832,311.46922 935.99547,311.47847 C 936.69628,311.46922 950.76515,311.47847 950.76515,311.47847 C 951.58294,311.53233 951.58294,310.96235 950.76515,310.77237 C 946.52523,310.3947 946.72249,308.75384 946.62932,306.85889 L 946.61048,292.15958 C 946.61048,285.3761 943.71469,280.34912 937.2679,280.34912 C 933.24342,280.34912 930.02514,282.78463 927.23344,285.52347 L 927.23344,281.54722 C 927.23344,281.54722 927.24798,280.51168 926.22467,280.97889 C 923.50929,282.05242 920.29003,284.19882 917.32419,285.20957 C 916.31279,285.58592 916.88309,286.09113 917.38895,286.28244 C 918.90194,286.97467 920.27284,287.97947 920.27284,290.00328 L 920.25434,306.85889 C 920.28177,308.24004 920.35149,310.14424 916.55399,310.64879 C 915.49137,310.83713 916.11917,311.46922 916.55399,311.47847 C 917.25712,311.46922 931.32599,311.47847 931.32599,311.47847 C 932.14774,311.53233 932.14774,310.96235 931.32599,310.77237 C 927.08607,310.3947 927.32694,308.75384 927.23344,306.85889 L 927.23344,288.93205 C 927.17165,286.21833 930.56504,284.13405 933.22755,284.13405 C 936.5803,284.13405 939.66575,287.85489 939.66575,291.17989"
       id="path189"
       style="fill:#14356f;fill-opacity:1;fill-rule:evenodd;stroke:none" />
    <path
       d="M 908.14882,279.13483 C 910.31999,279.13483 912.42443,277.17743 912.42443,274.5701 C 912.42443,271.95947 910.31999,270.00273 908.14882,270.00273 C 905.97962,270.00273 903.87419,271.95947 903.87419,274.5701 C 903.87419,277.17743 905.97962,279.13483 908.14882,279.13483"
       id="path191"
       style="fill:#14356f;fill-opacity:1;fill-rule:evenodd;stroke:none" />
    <path
       d="M 912.56518,280.2371 C 909.59572,281.62652 904.35759,283.70749 902.71278,284.37989 C 901.8332,284.84347 902.14908,285.4131 902.71278,285.4131 C 905.93633,285.95598 905.62442,287.9755 905.62442,288.75958 L 905.65053,306.92068 C 905.67299,308.30217 905.74403,310.14424 901.95282,310.64879 C 900.88887,310.83713 901.52095,311.46922 901.95282,311.47847 C 902.65363,311.46922 916.7225,311.47847 916.7225,311.47847 C 917.54425,311.53233 917.54425,310.96235 916.7225,310.77237 C 912.48654,310.3947 912.68248,308.75384 912.58898,306.85889"
       id="path193"
       style="fill:#14356f;fill-opacity:1;fill-rule:evenodd;stroke:none" />
    <path
       d="M 956.32213,289.25685 C 956.70277,285.55254 959.19842,281.03573 963.32402,281.11469 C 966.6054,281.17648 968.77692,285.28457 968.99564,288.67202 C 969.08519,290.00063 968.99564,290.14899 967.49158,290.19228 L 957.01502,290.14899 C 956.81347,290.16914 956.21044,290.03632 956.32213,289.25685 z M 975.8234,302.4521 C 973.67965,305.98329 971.65815,307.62645 966.28919,307.68824 C 960.13845,307.75962 955.12238,300.83438 955.72573,292.73583 C 955.75084,292.26564 956.01814,292.22203 956.35385,292.2445 L 976.57643,292.2445 C 977.73653,292.19923 977.73653,291.21757 977.64699,290.90532 C 976.48689,284.70403 969.51837,279.98499 963.32402,280.02035 C 955.33979,280.06397 948.26984,288.0168 948.31709,296.70812 C 948.36334,304.87308 954.6023,312.23282 963.21994,312.23282 C 970.33352,312.23282 974.53808,308.49975 976.83218,302.76403 C 977.14773,301.94459 976.39338,301.37693 975.8234,302.4521"
       id="path195"
       style="fill:#14356f;fill-opacity:1;fill-rule:evenodd;stroke:none" />
    <path
       d="M 900.0539,311.4821 L 903.17999,298.79802 C 903.34883,298.28619 903.38947,297.79123 903.13009,297.69739 C 902.876,297.60422 902.66652,298.01624 902.43093,298.49435 C 901.03623,301.26624 893.9438,310.43798 885.84559,310.43798 L 883.47782,310.43798 C 881.89478,310.43798 879.11233,308.547 879.11233,306.30974 L 879.11233,268.61862 C 879.11233,266.38729 881.89478,265.03622 883.47782,265.03622 C 883.98732,265.03622 884.40497,264.8036 884.40497,264.51878 C 884.40497,264.23033 883.98732,263.99672 883.47782,263.99672 L 883.5462,263.99672 L 866.69852,263.99672 C 866.18108,263.99672 865.76509,264.23033 865.76509,264.51878 C 865.76509,264.8036 866.18108,265.03622 866.69852,265.03622 C 868.2723,265.03622 871.05343,266.38729 871.05343,268.61862 L 871.05343,306.30974 C 871.05343,308.547 868.2723,310.43798 866.69852,310.43798 C 866.18108,310.43798 865.76509,310.67093 865.76509,310.95542 C 865.76509,311.24255 866.18108,311.4821 866.69852,311.4821 L 900.0539,311.4821 L 883.47782,311.4821"
       id="path197"
       style="fill:#14356f;fill-opacity:1;fill-rule:nonzero;stroke:none" />
    <path
       d="M 512.88677,306.94183 C 512.91452,308.32067 512.98489,310.15878 509.19038,310.66697 C 508.12444,310.85432 508.75588,311.48607 509.19038,311.5006 C 509.89119,311.48607 523.96139,311.5006 523.96139,311.5006 C 524.78049,311.55083 524.78049,310.98318 523.96139,310.79087 C 519.72312,310.41288 519.9207,308.77202 519.82719,306.87972 L 519.84967,262.50522 C 520.03734,261.87444 519.84768,261.49447 519.27143,261.72774 C 516.05844,262.88388 512.58642,264.40017 509.56243,265.65377 C 508.80082,266.10347 508.6736,266.54524 509.56243,266.73424 C 511.19932,267.49288 512.9013,268.12332 512.9079,270.83902"
       id="path199"
       style="fill:#14356f;fill-opacity:1;fill-rule:evenodd;stroke:none" />
    <path
       d="M 527.84612,306.92465 C 527.87487,308.3048 527.9459,310.14424 524.1484,310.65275 C 523.0838,310.84077 523.7139,311.47318 524.1484,311.48607 C 524.85153,311.47318 538.92272,311.48607 538.92272,311.48607 C 539.74215,311.53629 539.74215,310.96599 538.92272,310.77502 C 534.68247,310.4023 534.87973,308.75748 534.78589,306.86285 L 534.80869,262.49034 C 534.99637,261.85892 534.8067,261.48158 534.23277,261.7132 C 531.01747,262.86868 527.54907,264.38463 524.52112,265.63923 C 523.75983,266.08728 523.63295,266.5297 524.52112,266.71937 C 526.15734,267.47702 527.86297,268.10844 527.86727,270.8225"
       id="path201"
       style="fill:#14356f;fill-opacity:1;fill-rule:evenodd;stroke:none" />
    <path
       d="M 468.80634,303.52729 C 468.80634,309.13845 468.80172,309.52933 465.45062,310.54207 C 464.19965,310.98318 464.71245,311.48607 465.22263,311.48607 C 465.90494,311.48607 481.01628,311.48607 481.01628,311.48607 C 481.58295,311.48607 482.32308,310.79087 481.01628,310.41288 C 477.77687,310.03488 476.89333,309.13845 476.89333,303.52729 L 476.86887,271.95749 C 476.86887,266.3493 476.58438,265.15615 480.4473,264.65029 C 480.90294,264.71505 481.3001,264.08428 480.4473,264.00035 C 479.02783,264.01952 464.54064,264.00035 464.54064,264.00035 C 463.91714,264.01952 463.85833,264.46262 464.54064,264.65029 C 469.08687,265.28304 468.78222,266.79669 468.78222,271.95749 L 468.78222,283.71409 C 468.78222,283.71409 468.85062,284.66042 468.05332,284.59763 C 467.25932,284.66042 449.08897,284.59763 449.08897,284.59763 C 448.40698,284.62473 448.48794,283.87005 448.48794,283.87005 C 448.4648,284.43772 448.48794,271.95749 448.48794,271.95749 C 448.48794,266.3493 448.29332,265.47138 451.87274,264.71505 C 452.49822,264.52473 452.72389,264.08428 451.87274,264.00035 C 451.24725,263.95707 436.3064,264.00035 436.3064,264.00035 C 435.22793,264.14607 435.85143,264.83995 436.3064,264.90472 C 439.7715,265.47138 440.45382,266.67245 440.40194,271.95749 L 440.40194,303.52729 C 440.40194,309.13845 440.39798,309.52933 437.04654,310.54207 C 435.79558,310.98318 436.3064,311.48607 436.81855,311.48607 C 437.49988,311.48607 452.61222,311.48607 452.61222,311.48607 C 453.17822,311.48607 453.91704,310.79087 452.61222,310.41288 C 449.37247,310.03488 448.48794,309.13845 448.48794,303.52729 L 448.48794,287.6279 C 448.48794,287.6279 448.57814,286.93303 449.14679,286.93303 C 449.88297,286.99779 468.17657,286.93303 468.17657,286.93303 C 468.91504,286.99779 468.78222,287.6279 468.78222,287.6279"
       id="path203"
       style="fill:#14356f;fill-opacity:1;fill-rule:evenodd;stroke:none" />
    <path
       d="M 589.23814,306.94183 C 589.26523,308.32067 589.33627,310.15878 585.53844,310.66697 C 584.47582,310.85432 585.10593,311.48607 585.53844,311.5006 C 586.24158,311.48607 600.31078,311.5006 600.31078,311.5006 C 601.13187,311.55083 601.13187,310.98318 600.31078,310.79087 C 596.07449,310.41288 596.27208,308.77202 596.1779,306.87972 L 596.15544,292.18007 C 596.15544,285.39625 593.2623,280.36828 586.81783,280.36828 C 582.78705,280.36828 579.56977,282.80544 576.78269,285.54659 L 576.78269,281.5677 C 576.78269,281.5677 576.80185,280.53019 575.77194,281.00004 C 573.06087,282.07324 569.84127,284.21898 566.87147,285.22973 C 565.86304,285.60838 566.43069,286.11227 566.93558,286.30127 C 568.44988,286.99779 569.82673,288.00028 569.82673,290.0221 L 569.80162,306.87972 C 569.83069,308.25854 569.89909,310.15878 566.10589,310.66697 C 565.0393,310.85432 565.66942,311.48607 566.10589,311.5006 C 566.80704,311.48607 580.87823,311.5006 580.87823,311.5006 C 581.69733,311.55083 581.69733,310.98318 580.87823,310.79087 C 576.63732,310.41288 576.87719,308.77202 576.78269,306.87972 L 576.78269,288.95519 C 576.7209,286.23849 580.11497,284.15719 582.7811,284.15719 C 586.12329,284.15719 589.21765,287.8734 589.21765,291.20302"
       id="path205"
       style="fill:#14356f;fill-opacity:1;fill-rule:evenodd;stroke:none" />
    <path
       d="M 565.70047,306.96562 C 564.88137,308.29027 564.62727,308.29027 563.80618,308.22715 C 563.00294,308.16504 562.37052,307.678 562.22975,306.33287 L 561.9033,287.43692 C 561.9033,283.32718 560.35332,279.92883 554.47452,280.26222 C 545.75445,280.75917 538.93693,284.93499 538.80212,288.39545 C 538.74793,290.48734 539.36119,291.93919 541.59317,291.93919 C 544.25699,291.93919 544.85572,289.53342 544.85572,287.11807 C 544.85572,286.72784 544.86595,282.81139 547.76108,282.43967 C 550.64959,282.06697 555.33955,281.58224 554.60338,288.79725 L 554.60338,292.14042 C 544.19257,295.59725 537.01555,298.70615 537.9949,305.97932 C 538.56025,310.18389 541.5806,312.2262 545.05099,312.17863 C 548.5326,312.1393 551.6273,310.52753 554.60338,307.71997 C 556.04268,311.0334 557.42944,312.0762 560.71545,312.0762 C 563.87458,312.0762 565.76292,309.86372 566.58665,307.15264 C 566.71089,306.33287 566.206,306.27009 565.70047,306.96562 z M 554.60338,306.33287 C 553.05438,307.7715 552.21148,308.33355 550.04262,308.33355 C 547.12899,308.33355 544.76683,306.38673 544.76683,303.13013 C 544.76683,299.86527 546.40537,296.21282 554.60338,293.43268"
       id="path207"
       style="fill:#14356f;fill-opacity:1;fill-rule:evenodd;stroke:none" />
    <path
       d="M 510.86262,295.52225 C 510.86262,285.87899 503.78342,279.92684 494.81983,279.92684 C 485.85757,279.92684 478.86658,285.61037 478.86658,295.25229 C 478.86658,304.89555 485.85757,311.78907 494.81983,311.78907 C 503.78342,311.78907 510.86262,305.16418 510.86262,295.52225 z M 502.58268,295.1981 C 502.58268,305.18632 500.35499,310.12872 494.81983,310.12872 C 489.28565,310.12872 486.76622,305.18632 486.76622,295.1981 C 486.76622,285.20758 489.28565,281.18144 494.81983,281.18144 C 500.35499,281.18144 502.58268,285.20758 502.58268,295.1981"
       id="path209"
       style="fill:#14356f;fill-opacity:1;fill-rule:evenodd;stroke:none" />
    <path
       d="M 621.33793,311.90603 L 630.41617,309.31093 C 631.00398,309.21709 631.75932,308.45745 630.3372,308.2364 C 628.3527,307.89244 627.06738,306.71153 627.06738,303.8392 L 627.06738,262.75733 C 627.06738,262.75733 627.27753,261.62168 626.19442,261.97192 C 623.02669,263.00877 619.91548,264.46459 617.38679,265.87053 C 617.38679,265.87053 615.78955,266.3559 617.38679,266.86013 C 619.7952,268.0645 620.14678,268.4914 620.14678,270.77425 L 620.0797,280.91049 C 617.88175,280.62534 615.99937,280.06165 613.21295,279.92684 C 604.49487,279.50027 597.83165,287.44484 597.83165,295.59725 C 597.83165,303.23157 603.24523,311.85218 610.55903,311.85218 C 614.89313,311.85218 617.21629,311.13847 620.37542,307.87559 L 620.37542,311.29938 C 620.52742,312.56059 621.33793,311.90603 621.33793,311.90603 z M 620.12959,306.39532 C 618.76529,307.6965 616.83367,308.54964 615.04082,308.54964 C 608.65615,308.54964 605.82744,300.18709 605.82744,294.64268 C 605.82744,289.94479 607.47689,281.4309 613.82389,280.9964 C 618.07274,280.70464 619.99082,285.8628 620.12959,290.06903"
       id="path211"
       style="fill:#14356f;fill-opacity:1;fill-rule:evenodd;stroke:none" />
    <path
       d="M 654.75577,345.58555 L 657.52169,345.58555 L 655.46748,351.01202 L 655.54018,351.08867 C 656.73959,349.03182 658.75944,345.14015 661.56469,345.14015 C 662.94782,345.14015 663.9209,346.03855 663.9209,347.45803 C 663.9209,348.51009 663.43419,349.92824 662.12607,349.92824 C 661.30234,349.92824 660.70395,349.3662 660.70395,348.54709 C 660.70395,348.09542 660.92632,347.68205 661.15299,347.30803 C 660.81597,346.97364 660.25425,346.93399 659.80785,346.93399 C 656.66327,346.93399 653.44367,357.1449 652.69693,359.65443 L 650.15337,359.65443"
       id="path213"
       style="fill:#14356f;fill-opacity:1;fill-rule:evenodd;stroke:none" />
    <path
       d="M 628.80835,346.09903 L 623.97929,346.09903 C 623.34258,348.37462 620.61629,355.63027 620.61629,356.90898 C 620.61629,357.72942 620.99067,358.21943 621.84743,358.21943 C 623.60955,358.21943 625.21473,356.34793 625.36605,356.34793 C 625.47873,356.34793 625.58875,356.4193 625.58875,356.5746 C 625.58875,357.01968 622.18644,359.71523 620.05524,359.71523 C 618.74514,359.71523 617.6237,358.96848 617.6237,357.57907 C 617.6237,357.20669 621.10267,347.03543 623.45723,339.88749 L 626.33782,339.17775 L 624.27898,345.19467 L 629.0327,345.19467"
       id="path215"
       style="fill:#14356f;fill-opacity:1;fill-rule:evenodd;stroke:none" />
    <path
       d="M 710.43518,367.10139 C 714.11869,364.42038 716.46003,357.87282 716.72469,357.15514 L 716.75212,357.07882 C 718.19043,353.18088 719.22265,349.33844 719.75198,347.45143 L 723.34165,347.45143 L 723.53395,346.55599 L 719.97998,346.55599 C 720.44718,345.55813 721.03599,341.12392 722.1604,338.26118 C 722.1604,338.26118 723.29143,334.99698 724.99175,334.99698 C 725.36579,334.99698 725.63805,335.08222 725.95823,335.37894 C 726.87745,336.22812 726.67325,337.79397 726.43634,338.81429 C 726.33227,339.29109 726.24537,339.39914 726.30187,339.50189 C 726.32433,339.54914 726.42445,339.61787 726.4717,339.62547 C 726.59693,339.63473 726.6825,339.53229 726.70498,339.49264 C 726.89992,339.2597 728.11652,333.94459 725.02183,333.94459 C 722.5754,333.94459 720.04177,339.61093 719.53457,340.72643 C 719.02903,341.83928 717.45425,345.25348 717.16977,346.55599 L 713.83817,346.55599 L 713.72747,347.45143 L 716.90742,347.45143 C 716.13985,350.21834 715.13142,354.37269 714.11869,358.06908 L 714.09358,358.1454 C 713.44298,360.59348 711.97493,364.09359 710.42362,366.1412 L 710.3919,366.1967 C 710.2561,366.38339 710.10213,366.57074 709.92073,366.75775 C 707.508,369.19129 704.87424,367.67038 704.61619,367.9281 C 704.5359,368.014 704.52664,368.10752 704.59405,368.20069 C 704.75332,368.4115 707.32893,369.23589 709.64252,367.61618 C 709.64252,367.61618 709.9944,367.42124 710.43518,367.10139"
       id="path217"
       style="fill:#14356f;fill-opacity:1;fill-rule:evenodd;stroke:none" />
    <path
       d="M 549.58367,345.48675 C 548.75597,348.29432 545.61864,354.74144 545.61864,357.05635 C 545.61864,357.81367 546.44172,358.29575 547.15145,358.29575 C 549.0996,358.29575 550.82142,355.63819 551.23179,355.63819 C 551.38312,355.63819 551.4188,355.71749 551.4188,355.86487 C 551.4188,356.34662 547.94182,360.01789 545.28757,360.01789 C 544.08782,360.01789 542.47405,359.27148 542.47405,357.84407 C 542.47405,357.13565 544.19719,352.8531 546.70374,345.48675 L 549.58367,345.48675 M 552.57098,337.2263 C 552.57098,338.31669 551.74328,339.28315 550.77417,339.28315 C 549.68643,339.28315 549.05368,338.83809 549.05368,337.67799 C 549.05368,336.59422 549.8774,335.62113 550.84652,335.62113 C 551.93029,335.62113 552.57098,336.06357 552.57098,337.2263"
       id="path219"
       style="fill:#14356f;fill-opacity:1;fill-rule:evenodd;stroke:none" />
    <path
       d="M 483.08635,349.58758 C 482.22429,350.78699 478.74532,356.77352 478.74532,358.12294 C 478.74532,359.3544 480.57848,359.42413 481.47722,359.68879 L 481.47722,360.21052 C 479.94308,360.06283 478.44695,360.06283 476.91083,360.06283 C 475.48805,360.06283 474.10525,360.10214 472.68313,360.21052 L 472.68313,359.68879 C 475.37835,359.12774 476.0871,358.08362 478.63198,354.34263 C 481.06419,350.56067 488.0218,340.00875 493.18558,334.99698 L 494.04764,335.22332 L 494.04764,357.63194 C 494.04764,359.08842 495.50413,359.20704 496.62722,359.68879 L 496.62722,360.21052 C 495.16942,360.06283 493.70995,360.06283 492.25083,360.06283 C 490.45402,360.06283 488.66117,360.06283 486.86104,360.21052 L 486.86104,359.68879 C 490.0813,358.9394 490.82804,358.37868 490.82804,356.54817 L 490.82804,349.58758 L 483.08635,349.58758 M 490.82804,348.54345 L 490.82804,338.6276 C 488.2108,341.66019 485.81792,345.05887 483.64575,348.54345"
       id="path221"
       style="fill:#14356f;fill-opacity:1;fill-rule:evenodd;stroke:none" />
    <path
       d="M 612.57094,344.92604 C 611.56449,346.94589 608.22859,356.36908 608.22859,357.04743 C 608.22859,357.79517 609.13328,358.0899 609.76569,358.0899 C 611.26084,358.0899 612.64793,356.07303 613.13265,356.07303 C 613.24467,356.07303 613.35734,356.07303 613.35734,356.22138 C 613.35734,356.5561 610.43909,359.665 607.33217,359.665 C 606.43607,359.665 605.16528,359.14228 605.16528,358.05322 C 605.16528,357.11715 606.58344,354.80224 606.95813,353.86715 L 606.88908,353.78785 C 605.50033,355.99373 601.985,359.665 599.18009,359.665 C 597.4933,359.665 596.93622,358.05322 596.93622,356.63243 C 596.93622,351.0923 604.82594,344.69938 607.81655,344.69938 C 608.68193,344.69938 609.35135,345.33113 609.57868,346.12017 C 609.76569,345.74647 609.9504,345.33113 610.1004,344.92604 L 612.57094,344.92604 M 601.49434,357.8662 C 603.77785,357.8662 606.06138,354.68627 606.88908,352.85443 C 607.22412,352.10537 608.71927,348.77773 608.71927,348.29267 C 608.71927,347.09325 606.99778,346.12017 606.02437,346.12017 C 604.71427,346.12017 604.52658,346.49288 603.77785,347.5066 C 602.05605,349.86149 599.84984,353.30478 599.84984,356.29804 C 599.84984,357.23444 600.59858,357.8662 601.49434,357.8662"
       id="path223"
       style="fill:#14356f;fill-opacity:1;fill-rule:evenodd;stroke:none" />
    <path
       d="M 697.92159,361.06763 C 695.34202,361.06763 694.70332,359.64947 694.70332,357.63194 C 694.70332,352.61189 701.32688,346.10464 705.14684,346.10464 C 707.72543,346.10464 708.35752,347.52908 708.35752,349.54793 C 708.35752,354.55972 702.74635,361.06763 697.92159,361.06763 M 697.6252,358.04397 C 697.6252,359.50178 698.33362,360.17087 699.71907,360.17087 C 703.15839,360.17087 705.4419,351.9418 705.4419,349.43988 C 705.4419,347.97414 704.73349,347.30405 703.3454,347.30405 C 699.90475,347.30405 697.6252,355.53544 697.6252,358.04397"
       id="path225"
       style="fill:#14356f;fill-opacity:1;fill-rule:evenodd;stroke:none" />
    <path
       d="M 738.2891,359.06463 C 739.82324,358.61295 741.24668,358.39587 741.84308,357.19479 C 743.22984,354.4662 748.841,337.77943 748.841,337.03004 C 748.841,336.165 746.29414,335.6436 745.54475,335.53258 L 745.54475,335.01152 L 762.53188,335.01152 C 762.4962,336.1346 762.41855,337.21838 762.41855,338.34048 C 762.41855,339.46224 762.4962,340.62367 762.53188,341.74709 L 762.08417,341.74709 C 761.10844,340.65538 760.24837,337.36574 759.98799,336.1346 C 757.62947,335.83029 755.2749,335.90827 752.9177,335.90827 L 749.17539,345.93183 C 755.24088,345.89218 755.34992,345.59745 757.70448,341.70744 L 758.49054,341.70744 C 757.03273,345.11404 755.75832,348.58939 754.70989,352.14337 L 754.00015,352.14337 C 754.15017,350.75693 754.26747,349.40849 754.26747,348.02834 C 754.26747,347.17123 753.93175,346.82859 753.51808,346.82859 L 748.91172,346.82859 L 745.24969,357.86488 C 747.41855,358.0519 752.582,358.73025 755.04824,358.73025 C 756.84572,356.4074 758.60784,354.20285 760.7344,352.44107 L 761.03608,352.82172 C 759.87829,354.94928 759.12924,357.23279 758.23117,359.47799 C 756.31903,359.362 748.17192,359.33062 743.15088,359.33062 C 741.54538,359.33062 739.90088,359.362 738.2891,359.47799"
       id="path227"
       style="fill:#14356f;fill-opacity:1;fill-rule:evenodd;stroke:none" />
    <path
       d="M 767.97949,353.90548 C 768.84089,353.90548 769.55063,354.4662 769.55063,355.434 C 769.55063,356.03338 769.21624,356.36775 768.65387,356.63374 C 768.61687,356.82077 768.61687,357.00778 768.61687,357.15514 C 768.61687,358.01258 769.25557,358.42593 770.15099,358.42593 C 772.31854,358.42593 774.64138,354.94928 775.53847,353.26678 C 774.64138,346.90789 773.81335,346.61018 771.90519,346.61018 C 769.885,346.61018 769.28993,348.66803 768.91589,348.66803 C 768.80124,348.66803 768.76853,348.54974 768.76853,348.40237 C 768.76853,347.80332 771.38247,344.80842 773.93164,344.80842 C 775.91217,344.80842 776.51154,345.26174 777.21997,349.75213 L 777.29893,349.75213 C 778.15604,347.73195 780.21322,344.80842 782.6821,344.80842 C 784.25159,344.80842 785.15232,345.70549 785.15232,347.27894 C 785.15232,348.25467 784.74292,349.44649 783.58018,349.44649 C 782.71912,349.44649 782.15807,348.92377 782.15807,348.06765 C 782.15807,347.53733 782.4964,346.94457 782.76239,346.49288 C 782.34904,346.30587 781.975,346.1585 781.48368,346.1585 C 779.20445,346.1585 777.52394,349.97714 777.40698,350.42222 C 778.30373,357.15514 779.35578,357.98087 780.77394,357.98087 C 782.64642,357.98087 783.88152,355.99505 784.18088,355.99505 C 784.40722,355.99505 784.44522,356.11234 784.44522,356.22039 C 784.44522,356.48638 781.52333,359.77437 779.27945,359.77437 C 777.03294,359.77437 776.58127,359.47799 775.68979,353.90548 C 774.45469,355.96365 771.42178,359.77437 768.76853,359.77437 C 766.9314,359.77437 765.92825,358.27824 765.92825,356.55478 C 765.92825,355.434 766.6707,353.90548 767.97949,353.90548"
       id="path229"
       style="fill:#14356f;fill-opacity:1;fill-rule:evenodd;stroke:none" />
    <path
       d="M 795.31597,358.27824 C 797.18052,358.27824 799.24002,355.62102 799.50468,355.62102 C 799.65205,355.62102 799.80107,355.62102 799.80107,355.88469 C 799.80107,356.52305 795.90973,359.77437 793.06945,359.77437 C 790.71358,359.77437 789.28584,357.94385 789.28584,355.69734 C 789.28584,351.3573 794.8286,344.80842 799.31634,344.80842 C 800.6661,344.80842 801.5232,345.89218 801.5232,347.17123 C 801.5232,348.25467 801.07185,349.40849 799.80107,349.40849 C 799.01732,349.40849 798.45659,348.96309 798.45659,348.14432 C 798.45659,347.73195 798.71829,347.42895 799.01732,347.17123 C 798.75529,346.30587 798.04555,346.0108 797.18052,346.0108 C 794.49158,346.0108 792.43605,353.07977 792.43605,355.32364 C 792.43605,357.19479 793.43919,358.27824 795.31597,358.27824"
       id="path231"
       style="fill:#14356f;fill-opacity:1;fill-rule:evenodd;stroke:none" />
    <path
       d="M 831.84337,332.68967 C 830.72028,336.1346 823.68699,355.21559 823.68699,356.9288 C 823.68699,357.83349 824.84313,357.98087 825.48315,357.98087 C 827.27665,357.98087 829.22414,355.96365 829.33352,355.96365 C 829.44949,355.96365 829.52053,356.03338 829.52053,356.15167 C 829.52053,356.48638 825.67017,359.77437 823.30768,359.77437 C 822.07654,359.77437 820.7661,358.91694 820.7661,357.57015 C 820.7661,356.74179 825.29613,344.66104 829.03713,332.68967"
       id="path233"
       style="fill:#14356f;fill-opacity:1;fill-rule:evenodd;stroke:none" />
    <path
       d="M 844.56645,332.68967 C 843.446,336.1346 836.41008,355.21559 836.41008,356.9288 C 836.41008,357.83349 837.57315,357.98087 838.20227,357.98087 C 840.0037,357.98087 841.95284,355.96365 842.06089,355.96365 C 842.17025,355.96365 842.2479,356.03338 842.2479,356.15167 C 842.2479,356.48638 838.39324,359.77437 836.03604,359.77437 C 834.79962,359.77437 833.49183,358.91694 833.49183,357.57015 C 833.49183,356.74179 838.01922,344.66104 841.76054,332.68967"
       id="path235"
       style="fill:#14356f;fill-opacity:1;fill-rule:evenodd;stroke:none" />
    <path
       d="M 870.11339,345.26174 L 867.49515,352.3697 L 867.57182,352.44107 C 868.98997,349.7888 872.28457,344.80842 875.68754,344.80842 C 876.95933,344.80842 878.42109,345.44843 878.42109,346.94457 C 878.42109,348.7764 874.79079,355.4026 874.79079,356.9288 C 874.79079,357.64648 875.38984,358.0519 876.02589,358.0519 C 877.40837,358.0519 878.49247,356.74179 878.87013,356.74179 C 878.94414,356.74179 879.09118,356.82077 879.09118,356.96845 C 879.09118,357.30284 876.17723,359.47799 874.0414,359.47799 C 872.87865,359.47799 871.64852,359.02532 871.64852,357.71752 C 871.64852,355.924 875.2765,349.56512 875.2765,347.73195 C 875.2765,346.82859 874.79079,346.45323 873.93203,346.45323 C 870.52674,346.45323 866.41172,355.05898 865.14093,359.33062 L 862.63074,359.33062 C 864.05319,354.61357 865.66233,349.97714 867.26882,345.26174"
       id="path237"
       style="fill:#14356f;fill-opacity:1;fill-rule:evenodd;stroke:none" />
    <path
       d="M 582.59872,345.60934 L 579.98082,352.71763 L 580.05714,352.78867 C 581.47529,350.1364 584.76989,345.15634 588.17287,345.15634 C 589.44498,345.15634 590.90675,345.79637 590.90675,347.29217 C 590.90675,349.12367 587.27612,355.7502 587.27612,357.2764 C 587.27612,357.99408 587.87517,358.3995 588.51122,358.3995 C 589.89402,358.3995 590.97779,357.08939 591.35579,357.08939 C 591.42914,357.08939 591.57684,357.16837 591.57684,357.31573 C 591.57684,357.65044 588.66255,359.82592 586.52673,359.82592 C 585.36398,359.82592 584.13417,359.37258 584.13417,358.06512 C 584.13417,356.2716 587.76183,349.91272 587.76183,348.07955 C 587.76183,347.17652 587.27612,346.80117 586.41735,346.80117 C 583.01207,346.80117 578.89704,355.40658 577.62625,359.67855 L 575.11639,359.67855 C 576.53852,354.96117 578.14765,350.32474 579.75414,345.60934"
       id="path239"
       style="fill:#14356f;fill-opacity:1;fill-rule:evenodd;stroke:none" />
    <path
       d="M 889.82482,358.27824 C 891.69598,358.27824 893.74887,355.62102 894.01122,355.62102 C 894.15858,355.62102 894.30992,355.62102 894.30992,355.88469 C 894.30992,356.52305 890.41725,359.77437 887.57565,359.77437 C 885.21713,359.77437 883.79898,357.94385 883.79898,355.69734 C 883.79898,351.3573 889.33382,344.80842 893.82419,344.80842 C 895.17098,344.80842 896.02842,345.89218 896.02842,347.17123 C 896.02842,348.25467 895.58467,349.40849 894.30992,349.40849 C 893.52649,349.40849 892.96677,348.96309 892.96677,348.14432 C 892.96677,347.73195 893.22218,347.42895 893.52649,347.17123 C 893.26183,346.30587 892.55308,346.0108 891.69598,346.0108 C 888.9991,346.0108 886.94224,353.07977 886.94224,355.32364 C 886.94224,357.19479 887.95498,358.27824 889.82482,358.27824"
       id="path241"
       style="fill:#14356f;fill-opacity:1;fill-rule:evenodd;stroke:none" />
    <path
       d="M 810.04998,358.13087 C 812.25684,358.13087 813.48798,356.67339 814.72342,355.62102 C 814.94975,355.434 815.1328,355.17594 815.20913,355.17594 C 815.32247,355.17594 815.47644,355.24599 815.47644,355.32364 C 815.47644,355.84504 811.5471,359.77437 807.80214,359.77437 C 805.74232,359.77437 804.39917,358.61295 804.39917,356.52305 C 804.39917,351.693 810.64638,344.80842 814.64808,344.80842 C 815.8465,344.80842 816.44555,345.44843 816.44555,346.61018 C 816.44555,349.89949 810.61202,351.76933 808.10084,352.33038 C 807.69145,353.07977 807.39243,354.42688 807.39243,355.21559 C 807.39243,356.96845 808.14017,358.13087 810.04998,358.13087 M 812.47922,346.30587 C 810.53305,346.30587 808.81058,350.08652 808.36287,351.58264 C 810.19734,351.31765 813.67499,349.23073 813.67499,347.17123 C 813.67499,346.45323 813.15228,346.30587 812.47922,346.30587"
       id="path243"
       style="fill:#14356f;fill-opacity:1;fill-rule:evenodd;stroke:none" />
    <path
       d="M 852.36894,358.13087 C 854.57845,358.13087 855.81124,356.67339 857.04634,355.62102 C 857.26773,355.434 857.4544,355.17594 857.53338,355.17594 C 857.64143,355.17594 857.79144,355.24599 857.79144,355.32364 C 857.79144,355.84504 853.86607,359.77437 850.12508,359.77437 C 848.07053,359.77437 846.72375,358.61295 846.72375,356.52305 C 846.72375,351.693 852.96667,344.80842 856.971,344.80842 C 858.1724,344.80842 858.76882,345.44843 858.76882,346.61018 C 858.76882,349.89949 852.93099,351.76933 850.42509,352.33038 C 850.01042,353.07977 849.71535,354.42688 849.71535,355.21559 C 849.71535,356.96845 850.46474,358.13087 852.36894,358.13087 M 854.80115,346.30587 C 852.85632,346.30587 851.13352,350.08652 850.6848,351.58264 C 852.52159,351.31765 855.99793,349.23073 855.99793,347.17123 C 855.99793,346.45323 855.47388,346.30587 854.80115,346.30587"
       id="path245"
       style="fill:#14356f;fill-opacity:1;fill-rule:evenodd;stroke:none" />
    <path
       d="M 906.18514,358.13087 C 908.39365,358.13087 909.62875,356.67339 910.8665,355.62102 C 911.08657,355.434 911.2749,355.17594 911.35387,355.17594 C 911.46159,355.17594 911.60928,355.24599 911.60928,355.32364 C 911.60928,355.84504 907.68259,359.77437 903.94392,359.77437 C 901.88178,359.77437 900.54127,358.61295 900.54127,356.52305 C 900.54127,351.693 906.7855,344.80842 910.7915,344.80842 C 911.98695,344.80842 912.585,345.44843 912.585,346.61018 C 912.585,349.89949 906.74619,351.76933 904.24558,352.33038 C 903.83058,353.07977 903.53584,354.42688 903.53584,355.21559 C 903.53584,356.96845 904.27962,358.13087 906.18514,358.13087 M 908.61603,346.30587 C 906.67647,346.30587 904.954,350.08652 904.50497,351.58264 C 906.34175,351.31765 909.81578,349.23073 909.81578,347.17123 C 909.81578,346.45323 909.29438,346.30587 908.61603,346.30587"
       id="path247"
       style="fill:#14356f;fill-opacity:1;fill-rule:evenodd;stroke:none" />
    <path
       d="M 672.71465,358.13087 C 674.92317,358.13087 676.15827,356.67339 677.39602,355.62102 C 677.61607,355.434 677.8044,355.17594 677.88338,355.17594 C 677.99143,355.17594 678.13879,355.24599 678.13879,355.32364 C 678.13879,355.84504 674.21178,359.77437 670.47342,359.77437 C 668.41128,359.77437 667.07078,358.61295 667.07078,356.52305 C 667.07078,351.693 673.31535,344.80842 677.321,344.80842 C 678.51647,344.80842 679.11452,345.44843 679.11452,346.61018 C 679.11452,349.89949 673.2757,351.76933 670.77509,352.33038 C 670.36009,353.07977 670.06535,354.42688 670.06535,355.21559 C 670.06535,356.96845 670.80913,358.13087 672.71465,358.13087 M 675.14553,346.30587 C 673.20598,346.30587 671.48352,350.08652 671.03447,351.58264 C 672.87159,351.31765 676.34528,349.23073 676.34528,347.17123 C 676.34528,346.45323 675.82388,346.30587 675.14553,346.30587"
       id="path249"
       style="fill:#14356f;fill-opacity:1;fill-rule:evenodd;stroke:none" />
    <path
       d="M 342.31831,280.2219 C 342.31831,254.29465 359.88334,233.26949 381.56042,233.26949 C 403.23287,233.26949 420.80088,254.29465 420.80088,280.2219 C 420.80088,306.16238 403.23287,327.17499 381.56042,327.17499 C 359.88334,327.17499 342.31831,306.16238 342.31831,280.2219"
       id="path251"
       style="fill:#ffffff;fill-opacity:1;fill-rule:nonzero;stroke:none" />
    <path
       d="M 402.92592,251.98768 C 397.0524,247.1064 389.18878,250.12313 382.55795,254.58542 C 381.24883,255.4683 379.91956,256.42485 379.91956,256.42485 C 376.11975,251.57498 367.45322,258.83063 367.21102,263.15845 C 365.43568,264.09717 364.30532,265.12312 363.23014,267.66337 C 362.11795,270.25617 362.75797,275.15792 362.8832,276.37484 C 361.70064,278.78723 357.78188,286.32605 356.92907,292.00363 C 356.70273,293.46539 356.67498,295.46045 356.80186,297.63098 C 357.54464,305.53425 359.49575,309.79797 360.87426,311.88918 L 362.71403,312.62403 L 395.17332,311.70217 C 395.05998,294.341 395.90387,276.46835 404.18944,264.32449 C 405.98261,260.5379 406.02524,254.56923 402.92592,251.98768"
       id="path253"
       style="fill:#14356f;fill-opacity:1;fill-rule:nonzero;stroke:none" />
    <path
       d="M 403.26988,263.40395 C 403.18034,260.55377 401.64422,258.12552 398.8479,257.94578 C 398.2657,259.67089 397.891,261.26417 397.43998,263.29855 C 398.74117,263.57973 401.6211,264.55645 401.13769,267.86459 C 401.10168,268.10382 400.50428,269.41393 400.50428,269.41393 C 400.93184,266.51219 397.10626,264.91363 397.0187,265.16707 C 395.34051,270.25617 394.1857,294.26665 394.1857,294.26665 C 393.59887,286.42418 394.6202,269.16083 395.51827,265.0448 C 377.1044,265.72514 364.30532,289.07117 357.86613,300.12068 C 357.69597,299.48463 357.70786,298.51055 357.7528,298.43357 C 360.88946,292.09912 365.88208,283.77885 372.47954,276.37484 C 379.24419,268.78184 387.45541,263.3861 395.75056,263.20967 C 396.0443,261.2103 396.4223,258.9932 396.73421,257.58165 C 388.21702,256.6013 375.1883,268.13752 369.44894,275.71567 C 363.42509,283.68535 360.42258,289.36887 357.50895,296.54125 C 357.33515,291.09695 360.12421,284.5669 361.7165,281.19962 C 365.10725,273.99584 373.4579,262.89973 376.28331,263.57313 C 376.28331,263.57313 375.01318,266.4808 370.03279,271.21537 L 369.69708,272.37183 C 371.5623,270.04205 379.28879,264.96055 378.71981,260.03303 C 378.63589,259.35104 394.58055,246.18818 402.08732,253.42962 C 404.66689,255.91734 404.99929,259.8427 403.34356,263.57313"
       id="path255"
       style="fill:#ffffff;fill-opacity:1;fill-rule:nonzero;stroke:none" />
    <path
       d="M 363.93525,274.77959 C 363.8923,274.45082 363.8923,273.85045 363.83976,273.09743 C 363.78987,272.31103 365.56884,269.13935 367.39539,268.20394 L 367.48031,269.24145 C 366.32781,270.7204 364.69092,273.03465 363.93525,274.77959"
       id="path257"
       style="fill:#ffffff;fill-opacity:1;fill-rule:nonzero;stroke:none" />
    <path
       d="M 345.82933,280.14757 C 345.82933,256.11262 361.81529,236.6229 381.53134,236.6229 C 401.24706,236.6229 417.23335,256.11262 417.23335,280.14757 C 417.23335,304.18648 401.24706,323.6666 381.53134,323.6666 C 361.81529,323.6666 345.82933,304.18648 345.82933,280.14757 z"
       id="path259"
       style="fill:none;stroke:#14356f;stroke-width:2.21512341;stroke-linecap:butt;stroke-linejoin:miter;stroke-miterlimit:3.86369991;stroke-dasharray:none;stroke-opacity:1" />
    <path
       d="M 362.61722,313.5036 L 400.37674,313.5036 C 401.1063,312.85698 401.83091,312.17863 402.52182,311.45468 L 360.59968,311.45468 C 361.16866,312.49484 362.29109,313.30205 362.61722,313.5036"
       id="path261"
       style="fill:#14356f;fill-opacity:1;fill-rule:nonzero;stroke:none" />
    <path
       d="M 398.41967,315.10878 L 364.57065,315.10878 C 365.56884,315.85817 366.60933,316.53487 367.67889,317.15109 L 395.31341,317.15109 C 396.37934,316.53487 397.41388,315.85817 398.41967,315.10878"
       id="path263"
       style="fill:#14356f;fill-opacity:1;fill-rule:nonzero;stroke:none" />
    <path
       d="M 391.85526,318.85902 L 371.13242,318.85902 C 373.97071,320.03498 376.98115,320.74472 380.09865,320.90959 L 382.89366,320.90959 C 386.01313,320.74472 389.01432,320.03498 391.85526,318.85902"
       id="path265"
       style="fill:#14356f;fill-opacity:1;fill-rule:nonzero;stroke:none" />
    <path
       d="M 370.00173,303.31252 C 369.57846,302.79112 369.15652,302.17092 369.00056,301.78433 C 368.77191,300.4012 368.51716,297.14262 368.28752,295.14425 C 368.1874,294.27922 367.11024,294.17018 367.13073,295.29194 C 367.16212,296.90934 367.326,297.91217 367.39539,299.80447 C 366.55051,298.7458 365.79848,297.16112 364.44608,295.42279 C 363.74493,298.57333 364.93146,301.33728 365.99541,303.56264 C 366.18639,303.96377 366.23629,304.09892 366.40645,304.47724 C 366.9599,304.58793 367.34913,304.48583 367.72978,304.81063 C 367.77042,305.18632 367.77967,306.66792 367.81535,306.84832 C 367.39969,306.38673 366.28519,305.86467 365.19481,305.51542 C 364.95658,304.96163 364.38561,303.60824 364.1867,303.08023 C 363.57113,301.52033 363.07022,300.10614 362.62217,298.7544 C 362.77582,298.13684 362.3281,297.68517 361.81529,297.87879 C 361.31272,298.06184 360.56367,298.26108 361.4287,299.19484 C 362.05947,300.87767 362.40178,301.79689 362.89906,303.0908 L 362.90501,303.0908 C 363.08806,303.56694 363.43797,304.49443 363.69438,305.14105 C 362.69685,305.76455 363.64548,306.28662 364.03339,306.92465 C 364.14011,307.10902 365.60552,311.76528 365.77106,312.1393 C 365.89529,312.42777 366.31691,313.82345 367.29329,314.65313 L 383.64569,314.65313 C 385.12629,313.0952 384.11125,310.44459 386.34586,310.02859 C 386.86066,309.93509 387.64342,309.50588 387.92857,309.33307 C 388.39214,309.08427 388.65152,308.18354 388.02736,308.68677 C 387.09889,309.0119 385.34701,308.94483 385.64108,308.6643 C 387.97912,306.4571 390.79329,306.02063 390.61751,307.70543 C 390.5848,308.0322 390.61751,308.06757 391.3332,307.64232 C 391.92663,307.29075 393.04377,306.46967 393.45217,305.65055 C 393.82124,304.92232 393.64579,304.61899 392.48404,304.75447 C 393.38476,304.17392 393.64579,303.85175 393.96299,303.40207 C 394.04923,303.29038 394.07996,303.17539 394.06245,303.08023 L 394.06245,303.07164 C 394.00958,302.75543 393.53841,302.56478 393.19741,302.76403 L 392.64231,303.08023 C 391.94447,303.47739 391.16865,303.92445 390.35879,304.42338 C 389.65236,304.36555 387.74353,304.2846 386.6776,304.12832 C 386.84281,303.86167 386.99679,303.47739 387.08633,303.02803 C 387.25551,302.17092 387.20826,301.47044 386.73642,300.70519 L 384.27447,300.54262 L 384.24143,298.17418 C 385.35296,298.00369 386.05146,298.16593 386.88775,299.51932 C 387.9398,297.81007 388.49094,295.60155 387.76666,293.24732 C 387.4336,292.15397 386.86726,291.26547 386.3115,290.71433 C 385.54526,289.94083 385.86246,290.12784 384.62207,289.9884 C 384.4909,289.2172 384.48198,288.39943 384.57714,287.14582 C 386.25434,286.6981 386.12283,288.36209 388.63038,286.89173 C 388.33432,286.51505 388.23883,285.18248 388.14929,284.15719 C 386.56625,284.66635 386.56625,283.25679 384.38351,283.77489 C 384.76944,282.87417 384.18559,282.1565 383.41968,282.39143 C 382.77834,282.58505 382.55068,283.35394 383.06613,283.67643 C 383.13057,285.02652 383.157,287.54694 383.16427,289.8222 C 382.23117,289.67219 380.4522,289.31468 380.4522,289.31468 C 383.18409,291.71848 381.23099,297.56853 380.05041,299.25928 C 381.03439,298.60902 381.29972,298.41539 382.52887,298.35063 C 382.52887,298.73987 382.47898,299.86527 382.47898,300.37873 C 382.01276,300.43259 381.68763,300.37014 380.58007,300.23698 C 381.8611,300.97118 380.71091,305.88978 379.34496,306.73763 C 381.16458,306.34939 381.68763,306.0834 382.2695,305.63139 C 382.40067,307.10902 382.36565,307.70179 381.97509,307.70179 C 381.18242,307.72789 380.24965,307.75962 379.83795,307.80687 C 379.30597,307.8703 379.4246,308.10722 379.34496,308.68677 C 379.28218,309.13845 377.34395,309.038 376.22119,308.89724 C 376.15346,308.04014 376.04012,306.66792 376.22119,306.0834 C 376.75316,305.90432 377.32611,306.35765 377.20187,307.58449 C 378.22286,306.02063 379.02545,304.54002 379.1705,303.08023 L 379.17315,303.08023 C 379.28218,301.92212 379.18141,301.2517 378.2873,300.09755 C 377.905,299.59234 377.40045,299.61118 375.79462,299.55104 C 375.69517,298.55483 375.52401,298.13883 375.50947,297.17169 C 376.8665,297.20309 377.60333,297.64155 377.95952,298.76894 C 380.1046,296.22934 380.05801,293.24732 378.8913,290.70773 C 378.53511,289.92 377.77449,289.10057 376.999,288.59702 C 376.4885,288.26627 376.1746,288.31649 374.86714,288.11229 C 374.69367,287.34077 374.82683,286.34918 374.76405,285.42732 C 376.85394,285.55254 376.98115,284.32504 378.8229,284.54575 C 378.34148,283.42035 378.69173,282.6475 378.8229,281.84228 C 378.92996,281.12263 379.2356,280.31145 378.11548,280.11188 C 376.47495,279.83135 375.6162,281.91068 374.25388,281.23728 C 374.41942,280.88572 374.21192,280.00218 373.48764,279.96848 C 372.83308,279.94172 372.03182,281.04168 373.06801,281.81353 C 373.16416,283.29017 373.41098,287.46203 373.38885,287.91503 C 372.50993,288.03597 370.57996,287.2912 369.82826,287.6008 C 372.19769,288.56992 372.84498,291.61439 372.07312,293.66927 C 371.39114,293.07319 371.03825,292.01618 370.04006,293.01635 C 369.68982,293.41583 370.42797,294.152 371.65184,295.24173 C 371.45821,295.97988 371.28574,297.05505 370.72237,297.94322 C 371.87784,297.54804 373.19324,297.36103 373.92412,297.07389 L 374.15773,299.50279 C 373.43114,299.403 371.83952,299.25763 369.91219,299.19484 C 371.67893,299.80877 372.44749,300.97778 372.47954,303.08023 C 372.4954,304.16599 372.26939,305.36937 371.77905,306.60547 C 371.62276,307.01948 371.3016,307.71997 370.78879,308.05468 C 370.34305,308.05468 369.77539,307.83825 369.55897,307.67404 L 369.47405,305.63602 C 369.79258,305.84154 369.9862,306.06853 370.28027,306.23474 C 370.41277,305.85013 370.59979,305.33468 371.34455,305.30494 C 371.04288,304.66492 370.78879,304.25949 370.11143,303.40207 L 370.00173,303.31252 M 371.33265,308.26648 C 372.11145,307.78208 372.88331,307.16288 373.61023,306.69303 C 374.42537,306.23275 374.51855,306.13065 374.45213,307.68824 L 374.3388,308.74988 C 374.3388,308.74988 372.55256,308.62465 371.33265,308.26648 M 387.56775,305.92117 C 386.60722,306.62992 385.38501,307.33535 384.26126,307.71997 C 384.38351,306.9524 384.38351,305.4675 384.38351,305.4675 C 384.71162,305.14964 385.13224,305.88978 385.13224,306.27868 C 385.7868,306.0834 386.37031,304.91472 386.37031,304.91472 C 386.56427,304.65633 385.90806,304.39233 385.90806,304.39233 C 387.54099,304.26709 387.83109,305.79627 387.56775,305.92117"
       id="path267"
       style="fill:#ffffff;fill-opacity:1;fill-rule:nonzero;stroke:none" />
    <path
       d="M 379.18537,257.07744 C 376.30776,254.42054 371.81507,257.49542 369.58706,260.44242 C 368.32023,262.11763 368.53434,263.87943 368.53434,263.87943 C 370.72237,259.95472 374.90976,256.90925 378.27904,258.15493 C 378.46407,258.22168 379.4692,257.23669 379.18537,257.07744"
       id="path269"
       style="fill:#ffffff;fill-opacity:1;fill-rule:nonzero;stroke:none" />
    <path
       d="M 376.7264,260.44242 C 377.0436,260.5379 376.91143,262.10838 376.52881,262.07534 C 373.05909,262.52967 371.07328,265.38778 368.93778,267.77142 C 368.88723,267.51105 368.79769,266.86277 368.79769,266.60603 C 370.16727,263.6141 374.14782,259.6689 376.7264,260.44242"
       id="path271"
       style="fill:#ffffff;fill-opacity:1;fill-rule:nonzero;stroke:none" />
    <path
       d="M 367.2543,266.51219 C 367.29098,266.31957 367.14493,265.22192 367.14493,265.22192 C 366.47088,265.35243 364.27096,267.38153 364.01092,268.72402 C 363.76079,270.07774 363.94384,270.29845 364.14672,269.80317 C 364.49696,268.9672 366.65063,266.70483 367.2543,266.51219"
       id="path273"
       style="fill:#ffffff;fill-opacity:1;fill-rule:nonzero;stroke:none" />
    <path
       d="M 414.48394,322.29207 L 416.15157,322.29207 C 416.97463,322.29207 417.05955,322.79099 417.05955,323.21889 C 417.05955,323.42177 417.08135,324.20948 417.18478,324.52965 L 418.02569,324.52965 L 418.02569,324.40575 C 417.81357,324.29507 417.77854,324.17777 417.76863,323.8893 L 417.72865,322.94794 C 417.69892,322.22103 417.4045,322.0882 417.11804,321.97222 C 417.43953,321.77067 417.82909,321.48882 417.82909,320.72654 C 417.82909,319.62559 416.98918,319.3226 416.15157,319.3226 L 413.79568,319.3226 L 413.79568,324.52965 L 414.48394,324.52965 L 414.48394,322.29207 M 414.48394,319.9299 L 416.20179,319.9299 C 416.5474,319.9299 417.11804,319.99137 417.11804,320.79462 C 417.11804,321.56647 416.5821,321.69169 416.08118,321.69169 L 414.48394,321.69169"
       id="path275"
       style="fill:#14356f;fill-opacity:1;fill-rule:evenodd;stroke:none" />
    <path
       d="M 411.1824,322.05119 C 411.1824,319.40818 413.27759,317.26574 415.86509,317.26574 C 418.4397,317.26574 420.53622,319.40818 420.53622,322.05119 C 420.53622,324.6833 418.4397,326.81913 415.86509,326.81913 C 413.27759,326.81913 411.1824,324.6833 411.1824,322.05119 z"
       id="path277"
       style="fill:none;stroke:#14356f;stroke-width:0.99786276;stroke-linecap:round;stroke-linejoin:miter;stroke-miterlimit:3.86369991;stroke-dasharray:none;stroke-opacity:1" />
    <path
       d="M 641.41215,352.10008 L 641.33583,352.0287 C 639.91768,354.68098 636.62308,359.66137 633.22009,359.66137 C 631.94832,359.66137 630.48655,359.02134 630.48655,357.52522 C 630.48655,355.6937 633.57067,348.96573 634.11718,347.54097 L 634.95049,345.53269 L 637.78648,345.53269 L 637.25913,347.10514 C 636.7298,348.81837 633.63114,354.90467 633.63114,356.73783 C 633.63114,357.64119 634.11718,358.01654 634.9756,358.01654 C 638.3809,358.01654 642.32808,349.80467 643.59887,345.53269 L 646.10872,345.53269 C 644.6866,350.24974 642.60794,356.04229 642.60794,356.04229 C 642.42357,356.57064 642.31155,356.78409 642.31155,357.05107 C 642.31155,357.76907 642.91093,358.17449 643.54699,358.17449 C 644.92945,358.17449 646.01323,356.86438 646.39123,356.86438 C 646.4649,356.86438 646.6126,356.94335 646.6126,357.09072 C 646.6126,357.42543 643.69832,359.60057 641.56249,359.60057 C 640.39975,359.60057 639.1696,359.14757 639.1696,357.8401 C 639.1696,357.39899 639.389,356.89345 639.72008,356.0347 L 641.33583,352.0287"
       id="path279"
       style="fill:#14356f;fill-opacity:1;fill-rule:evenodd;stroke:none" />
    <path
       d="M 538.65707,342.51729 L 540.16575,336.59157 C 540.16575,336.59157 537.61493,334.15012 532.95074,334.72305 C 528.28657,335.30129 525.24209,338.45612 525.59894,342.29624 C 525.95579,346.13603 531.55175,348.68917 532.59455,350.80154 C 533.63637,352.91125 533.38987,358.50887 528.15142,358.7276 C 522.91132,358.94865 521.5186,353.57077 521.27244,350.66342 L 520.57857,357.79517 C 520.57857,357.79517 523.84343,359.00384 526.17618,359.8008 C 528.50728,360.59215 533.02575,360.21415 535.50223,355.71188 C 537.78079,351.56909 535.68264,348.57617 534.10423,347.06814 C 532.90713,345.92555 526.90443,342.96402 529.02405,338.93688 C 531.01185,335.1602 534.18387,335.88712 535.58319,336.35302 C 536.98284,336.81923 538.46477,338.83677 538.65707,342.51729"
       id="path281"
       style="fill:#14356f;fill-opacity:1;fill-rule:nonzero;stroke:none" />
    <path
       d="M 571.43653,344.98387 C 571.43653,344.98387 570.56753,350.22594 566.48125,358.97377 C 562.3943,367.72654 558.08962,367.82038 556.57795,367.83592 C 554.72134,367.85574 553.13137,367.25933 552.73552,365.86068 C 552.28714,364.27665 553.12079,363.36569 554.35722,363.39179 C 557.07193,363.47473 553.8857,365.72124 557.6191,366.18878 C 562.72307,366.79443 565.07994,356.17678 564.28727,357.46607 C 563.48733,358.75503 561.24082,360.37507 559.01875,359.65972 C 557.31545,359.14228 554.9285,356.61657 558.80002,350.44468 C 563.62709,342.7347 568.69934,345.53269 568.69934,345.53269 L 571.43653,344.98387 z M 560.58428,351.1597 C 559.49158,352.94793 557.80215,358.01787 560.78319,357.91775 C 564.75679,357.78459 567.04428,352.65023 567.54057,350.36572 C 568.03719,348.0812 567.72362,345.58292 564.95703,346.58903 C 563.864,346.98685 561.67763,349.37149 560.58428,351.1597"
       id="path283"
       style="fill:#14356f;fill-opacity:1;fill-rule:nonzero;stroke:none" />
  </g>
</svg>
