<?xml version="1.0" encoding="UTF-8" standalone="no"?>
<!-- Created with Inkscape (http://www.inkscape.org/) -->

<svg
   xmlns:dc="http://purl.org/dc/elements/1.1/"
   xmlns:cc="http://creativecommons.org/ns#"
   xmlns:rdf="http://www.w3.org/1999/02/22-rdf-syntax-ns#"
   xmlns:svg="http://www.w3.org/2000/svg"
   xmlns="http://www.w3.org/2000/svg"
   version="1.1"
   width="300"
   height="123.9906"
   id="svg3539">
  <defs
     id="defs3541">
    <clipPath
       id="clipPath540">
      <path
         d="m 280.609,6.657 51.065,0 0,20.701 -51.065,0 0,-20.701 z"
         id="path542" />
    </clipPath>
  </defs>
  <metadata
     id="metadata3544">
    <rdf:RDF>
      <cc:Work
         rdf:about="">
        <dc:format>image/svg+xml</dc:format>
        <dc:type
           rdf:resource="http://purl.org/dc/dcmitype/StillImage" />
        <dc:title></dc:title>
      </cc:Work>
    </rdf:RDF>
  </metadata>
  <g
     transform="translate(-337.51358,-683.30908)"
     id="layer1">
    <g
       transform="matrix(5.7966473,0,0,-5.7966473,-1287.0813,843.89318)"
       id="g536"
       style="fill:#000000;fill-opacity:1">
      <g
         clip-path="url(#clipPath540)"
         id="g538"
         style="fill:#000000;fill-opacity:1">
        <g
           transform="translate(323.6706,8.6299)"
           id="g544"
           style="fill:#000000;fill-opacity:1">
          <path
             d="m 0,0 c -3.406,-0.914 -7.18,2.118 -8.427,6.766 -1.245,4.652 0.508,9.16 3.917,10.077 3.407,0.911 7.179,-2.12 8.426,-6.768 C 5.161,5.423 3.41,0.915 0,0 m -21.415,-0.082 c -1.81,0 -3.909,1.849 -3.909,4.405 0,1.272 0.871,2.595 1.806,3.33 1.837,-2.153 4.047,-4.336 5.892,-6.029 -0.574,-0.541 -2.028,-1.706 -3.789,-1.706 m -0.304,17.253 c 1.132,0 2.278,-1.226 2.278,-3.051 0,-0.832 -0.289,-2.378 -2.038,-3.68 -0.99,1.193 -2.17,2.802 -2.17,4.032 0,1.52 0.723,2.699 1.93,2.699 m 19.382,1.536 c -5.32,0 -9.698,-4.019 -10.27,-9.189 -0.435,-0.013 -0.859,-0.02 -1.141,-0.02 -1.306,0 -2.615,0.084 -2.984,0.108 l -0.56,0.037 0.418,-1.45 0.24,-0.031 c 0.611,-0.084 1.111,-0.162 1.479,-0.233 0.006,-0.077 0.015,-0.152 0.015,-0.239 0,-1.198 -0.376,-2.825 -0.815,-3.88 -1.131,1.338 -2.978,3.535 -4.372,5.277 2.433,1.614 4.208,3.599 4.208,5.385 0,2.116 -1.995,4.256 -5.183,4.256 -2.97,0 -5.853,-2.189 -5.853,-4.877 0,-1.459 0.969,-3.092 2.502,-4.859 -1.965,-1.028 -4.298,-2.974 -4.298,-5.671 0,-3.013 3.029,-5.287 6.487,-5.287 2.333,0 4.253,0.775 5.864,2.347 0.277,-0.231 0.778,-0.659 0.778,-0.659 0.852,-0.732 1.142,-1.001 2.005,-1.481 l 0.122,-0.068 2.381,0.581 -0.615,0.555 c -0.736,0.665 -1.323,1.358 -2.787,3.099 1.072,1.622 1.752,3.218 2.103,4.849 0.555,-5.187 4.943,-9.229 10.276,-9.229 5.713,0 10.34,4.629 10.34,10.338 0,5.712 -4.627,10.341 -10.34,10.341 m -32.499,-10.681 -0.255,-0.075 -0.158,-1.546 0.487,0.079 c 1.093,0.176 3.801,0.982 5.345,2.777 1.157,1.344 1.719,2.854 1.719,4.615 0,0.757 -0.244,2.639 -2.518,3.736 -1.163,0.552 -3.699,0.818 -6.416,0.818 l -3.859,-0.015 -2.541,-0.014 0.059,-0.5 0.114,-0.706 0.393,-0.038 c 0.449,-0.043 1.537,-0.149 2.076,-0.278 0.07,-1.307 0.095,-5.5 0.095,-6.574 l 0,-1.086 c 0,-2.946 -0.026,-7.812 -0.097,-9.366 -0.489,-0.089 -1.22,-0.187 -1.692,-0.251 l -0.743,-0.106 -0.047,-0.315 -0.187,-0.861 0.491,0.04 c 0.643,0.055 3.661,0.106 4.797,0.106 1.066,0 3.658,-0.051 4.428,-0.106 l 0.513,-0.035 -0.298,1.182 -0.269,0.031 c -0.508,0.055 -1.911,0.213 -2.644,0.325 -0.069,1.433 -0.092,6.751 -0.092,9.224 l 0,1.136 c 0,2.397 0.023,5.546 0.085,6.718 1.027,-0.037 1.943,-0.235 2.494,-0.546 1.063,-0.605 1.674,-2.011 1.674,-3.493 0,-3.222 -1.415,-4.432 -2.954,-4.876 M 3.471,8.503 C 3.152,8.686 2.939,8.809 2.939,9.05 c 0,0.202 0.173,0.345 0.393,0.345 0.227,0 0.37,-0.113 0.482,-0.2 l 0,0.393 C 3.693,9.639 3.53,9.71 3.299,9.71 2.881,9.71 2.544,9.377 2.544,8.974 2.544,8.587 2.762,8.45 3.306,8.108 3.381,8.063 3.52,7.951 3.52,7.775 3.52,7.594 3.36,7.418 3.139,7.418 c -0.235,0 -0.385,0.176 -0.5,0.31 l 0,-0.539 C 2.758,7.152 2.878,7.118 3.078,7.118 c 0.531,0 0.861,0.306 0.861,0.728 0,0.245 -0.102,0.445 -0.468,0.657 M 1.389,8.309 C 1.583,8.293 1.677,8.281 1.97,8.194 l 0.217,0.358 -0.798,0 0,0.89 C 1.657,9.452 1.807,9.419 2.09,9.289 l 0.197,0.394 -1.373,0 C 0.984,9.463 1.01,9.212 1.01,9.038 l 0,-1.246 C 1.01,7.466 0.958,7.286 0.914,7.136 l 1.335,0 0.185,0.424 C 1.895,7.378 1.715,7.378 1.389,7.378 l 0,0.931 z M 0.217,8.503 c -0.319,0.183 -0.533,0.306 -0.533,0.547 0,0.202 0.173,0.345 0.394,0.345 0.228,0 0.37,-0.113 0.483,-0.2 l 0,0.393 C 0.438,9.639 0.276,9.71 0.044,9.71 -0.374,9.71 -0.711,9.377 -0.711,8.974 -0.711,8.587 -0.492,8.45 0.05,8.108 0.126,8.063 0.264,7.951 0.264,7.775 c 0,-0.181 -0.159,-0.357 -0.379,-0.357 -0.235,0 -0.386,0.176 -0.5,0.31 l 0,-0.539 c 0.117,-0.037 0.238,-0.071 0.438,-0.071 0.533,0 0.863,0.306 0.863,0.728 0,0.245 -0.101,0.445 -0.469,0.657 m -1.191,1.18 -0.575,0 c 0.065,-0.156 0.098,-0.315 0.098,-0.604 l 0,-1.212 c 0,-0.425 -0.048,-0.57 -0.098,-0.731 l 0.575,0 C -1.05,7.405 -1.071,7.55 -1.071,7.839 l 0,1.172 c 0,0.384 0.047,0.522 0.097,0.672 m -0.997,0 -0.543,0 C -2.422,9.49 -2.422,9.214 -2.422,9.1 l 0,-1.007 c 0,-0.158 -0.006,-0.201 -0.022,-0.254 -0.07,-0.237 -0.309,-0.445 -0.583,-0.445 -0.161,0 -0.458,0.092 -0.585,0.401 -0.035,0.097 -0.05,0.191 -0.05,0.349 l 0,0.928 c 0,0.354 0.026,0.444 0.083,0.611 l -0.546,0 C -4.081,9.574 -4.041,9.486 -4.041,9.1 l 0,-1.007 c 0,-0.581 0.302,-0.981 0.83,-0.981 0.36,0 0.656,0.185 0.805,0.275 0.004,-0.075 0,-0.106 -0.016,-0.251 l 0.451,0 c -0.067,0.343 -0.067,0.493 -0.067,0.669 l 0,1.358 c 0,0.333 0.027,0.411 0.067,0.52 m -3.606,-1.332 0,1.115 c 0.508,-0.051 0.627,-0.357 0.627,-0.547 0,-0.39 -0.385,-0.5 -0.627,-0.568 m 1.014,0.607 c 0,0.34 -0.309,0.736 -0.961,0.725 L -6.023,9.677 C -5.996,9.588 -5.954,9.45 -5.954,9.15 l 0,-1.355 c 0,-0.221 -0.014,-0.408 -0.069,-0.659 l 0.516,0 c -0.067,0.273 -0.07,0.354 -0.07,0.55 l 0,0.63 c 0.525,-0.7 0.682,-0.885 1.025,-1.18 l 0.35,0 c -0.303,0.363 -0.613,0.742 -0.842,1.14 0.114,0.061 0.481,0.267 0.481,0.682 M -7.967,8.397 c 0,0.568 0.395,0.989 0.962,0.989 0.303,0 0.513,-0.108 0.661,-0.185 l 0,0.407 c -0.125,0.046 -0.281,0.098 -0.545,0.098 -0.915,0 -1.484,-0.672 -1.484,-1.353 0,-0.455 0.289,-1.237 1.277,-1.237 0.401,0 0.632,0.112 0.794,0.194 l 0.021,0.394 C -6.42,7.598 -6.643,7.428 -7.032,7.428 c -0.596,0 -0.935,0.45 -0.935,0.969"
             id="path546"
             style="fill:#000000;fill-opacity:1;fill-rule:nonzero;stroke:none" />
        </g>
      </g>
    </g>
  </g>
</svg>
