<svg xmlns="http://www.w3.org/2000/svg" viewBox="0 0 141.039 22.311"><defs><style>.a{fill:#717271;}</style></defs><title>Diamond Princcess Wordmark</title><path class="a" d="M137.794,1.848a1.625,1.625,0,1,1,1.623,1.534A1.54,1.54,0,0,1,137.794,1.848Zm2.91-.018a1.288,1.288,0,0,0-2.574,0,1.287,1.287,0,0,0,2.574,0Zm-1.957-.247v-.44c0-.106-.071-.124-.212-.124-.017,0-.035-.018-.035-.053,0-.053.035-.07.088-.07h.071c.035,0,.176.017.3.017.159,0,.229-.017.406-.017.3,0,.776.053.776.476,0,.176-.071.317-.37.529l.317.37c.229.265.264.265.3.265a.046.046,0,0,1,.052.052c0,.053-.017.071-.158.071a.685.685,0,0,1-.688-.335l-.247-.335h-.211v.159c0,.317.018.352.035.37a.53.53,0,0,0,.176.018c.036,0,.053,0,.053.052a.065.065,0,0,1-.07.071h-.071c-.035,0-.194-.018-.282-.018-.053,0-.229.018-.265.018h-.088c-.035,0-.123-.018-.123-.071a.046.046,0,0,1,.053-.052c.158,0,.176,0,.194-.106a3.645,3.645,0,0,0,0-.459Zm.388.177a.563.563,0,0,0,.247.053.262.262,0,0,0,.159-.036.342.342,0,0,0,.158-.3.385.385,0,0,0-.406-.388c-.017,0-.123,0-.158.036Z"/><path class="a" d="M8.3.472c-.617,0-1.317.022-2,.044-.637.02-1.257.04-1.773.04-.3,0-.769-.015-1.308-.032C2.491.5,1.585.472.784.472.549.472,0,.472,0,.935c0,.308.22.464.655.464a4.774,4.774,0,0,1,.966.077c.7.159.9.457.953,1.39.051.884.051,1.648.051,5.884v4.895c0,2.544,0,4.743-.128,5.894-.1.816-.229,1.273-.591,1.351A3.8,3.8,0,0,1,1.019,21c-.52,0-.629.236-.629.435,0,.183.095.492.732.492.6,0,1.374-.027,2.061-.051.51-.017.959-.033,1.215-.033s.66.012,1.153.027c.81.026,1.818.057,2.877.057.655,0,.7-.377.7-.492,0-.131-.061-.435-.628-.435a10.486,10.486,0,0,1-1.3-.108c-.6-.086-.751-.51-.833-1.315-.128-1.184-.128-3.383-.128-5.927V2.521c0-.246.057-.324.067-.329a3.261,3.261,0,0,1,.942-.1A3.494,3.494,0,0,1,9.71,3.119a5.3,5.3,0,0,1,1.468,4.018c0,2.712-1.905,4.376-3.27,4.376-.329,0-.941,0-.941.518,0,.356.333.427.479.458a3.382,3.382,0,0,0,.591.033c3.829,0,6.607-2.919,6.607-6.943a5.231,5.231,0,0,0-1.361-3.458C12.877,1.713,11.644.472,8.3.472Z"/><path class="a" d="M69.362.472c-.919,0-1.688.039-2.2.064-.231.012-.4.02-.5.02-.222,0-.555-.013-.963-.028C65.045.5,64.223.472,63.346.472c-.347,0-.928,0-.928.463,0,.308.22.464.653.464a4.394,4.394,0,0,1,1.374.149c.523.222.776.623.8,2.312l.266,12.1c-.344-.354-.977-1.027-1.732-1.829-1.338-1.42-3-3.188-4.077-4.274C55.5,5.627,51.235.974,51.194.93c-.092-.1-.175-.193-.253-.279C50.6.273,50.358,0,50.022,0c-.569,0-.569.842-.569,1.155l-.248,16.463c-.028,2.471-.159,3.078-.7,3.247A4.677,4.677,0,0,1,47.33,21c-.539,0-.653.236-.653.435,0,.492.531.492.817.492,1.014,0,1.951-.042,2.511-.068.226-.009.386-.016.457-.016.181,0,.432.01.757.023.627.026,1.485.061,2.649.061.231,0,.844,0,.844-.492,0-.288-.229-.435-.679-.435a4.119,4.119,0,0,1-1.357-.182c-.351-.125-.762-.566-.821-2.892l-.29-11.2c.09.1.2.216.314.347,1.153,1.284,3.554,3.953,5.932,6.338,1.16,1.163,2.429,2.454,3.643,3.69,1.766,1.8,3.434,3.5,4.46,4.484A1.769,1.769,0,0,0,67,22.255c.569,0,.569-.754.569-1.071l.3-17.547c.028-1.646.29-2,.856-2.162A2.783,2.783,0,0,1,69.5,1.4c.614,0,.706-.291.706-.464C70.206.472,69.636.472,69.362.472Z"/><path class="a" d="M90.087,16.323c-.43,0-.5.355-.564.724a4.458,4.458,0,0,1-.883,1.742c-1.068,1.246-2.527,1.482-4.845,1.482-5.734,0-8.406-5.78-8.406-9.686,0-3.248.778-5.487,2.449-7.046a6.845,6.845,0,0,1,5-1.668c2.31,0,4.479.665,5.4,1.658a3.78,3.78,0,0,1,1.008,2.412c0,.247,0,.825.487.825s.52-.526.54-.832.036-.843.042-1.425c.007-.563.014-1.144.041-1.588.033-.582.076-.935.1-1.167a3.391,3.391,0,0,0,.033-.373c0-.115-.044-.495-.6-.545-.417-.043-.856-.131-1.32-.224-.444-.09-.9-.181-1.411-.25A27.1,27.1,0,0,0,83.165.083c-3.8,0-6.589.955-8.79,3.005a10.907,10.907,0,0,0-3.269,7.774,10.686,10.686,0,0,0,3.464,8.363h0c2.384,2.1,5.41,3.085,9.525,3.085a15.838,15.838,0,0,0,5.007-.657,1.184,1.184,0,0,0,.833-.944,26.769,26.769,0,0,0,.61-3.758C90.546,16.385,90.225,16.323,90.087,16.323Z"/><path class="a" d="M105.5,17.269c-.388,0-.448.358-.488.6-.168,1.093-.445,1.608-1.02,1.9a5.714,5.714,0,0,1-2.269.31c-2.516,0-2.763-.376-2.809-2.13-.017-.569-.01-2,0-3.156,0-.463,0-.872,0-1.146v-2.2a.575.575,0,0,1,0-.065c.76,0,3.054.031,3.485.081.924.11,1.139.527,1.228.918a4.812,4.812,0,0,1,.079.72c.006.09.011.176.017.237a.42.42,0,0,0,.439.463c.44,0,.44-.519.44-.74,0-.1.021-.467.044-.866.022-.351.044-.73.055-.984.067-.935.134-1.45.17-1.728a2.862,2.862,0,0,0,.032-.316.388.388,0,0,0-.388-.437c-.22,0-.352.167-.534.4l-.035.045c-.178.22-.51.288-1.063.339-.36.035-1.8.054-3.968.054,0-.02,0-.049,0-.092V2.438a.551.551,0,0,1,0-.066c.63,0,3.119.058,3.507.109,1.182.157,1.367.443,1.515.866a3,3,0,0,1,.138.925c0,.4.149.6.44.6.17,0,.387-.084.462-.487.034-.227.066-.82.092-1.3.014-.247.026-.457.034-.559a12.442,12.442,0,0,1,.167-1.522,1.974,1.974,0,0,0,.037-.3c0-.417-.255-.463-.365-.463a.962.962,0,0,0-.318.074,1.017,1.017,0,0,1-.141.044,9.711,9.711,0,0,1-1.038.161c-.426.025-4.535.027-6.282.027-.309,0-.791-.021-1.347-.045L95.579.5C95.271.5,94.94.493,94.6.486c-.355-.007-.715-.014-1.064-.014-.229,0-.767,0-.767.463,0,.308.216.464.641.464a4.464,4.464,0,0,1,.934.077c.672.158.869.457.919,1.389.048.885.048,1.649.048,5.885v4.895c0,2.544,0,4.743-.123,5.9-.1.816-.221,1.273-.569,1.35a3.533,3.533,0,0,1-.856.105c-.537,0-.617.273-.617.435,0,.183.094.492.717.492.246,0,.528-.014.82-.027s.621-.029.927-.03c.6-.027,1.148-.027,1.423-.027h0c.7,0,1.437.023,2.614.084l.729.019c.953.028,2.14.063,3.631.063.955,0,1.35,0,1.566-.888a23.812,23.812,0,0,0,.333-3.135C105.911,17.7,105.911,17.269,105.5,17.269Z"/><path class="a" d="M116.612,8.858l-.765-.583c-2.386-1.837-2.823-2.733-2.823-3.837,0-1.611,1.2-2.651,3.049-2.651A3.259,3.259,0,0,1,118.9,3.07a3.2,3.2,0,0,1,.666,1.7c0,.59.264.714.486.714.515,0,.515-.656.515-1.048,0-1.532.054-2.372.086-2.873.014-.208.024-.354.024-.462,0-.417-.4-.507-.541-.54a13.366,13.366,0,0,0-3.7-.48c-3.854,0-6.546,2.249-6.546,5.469,0,2.436,1.238,4.457,4.138,6.756l1.261,1c2.17,1.726,2.606,2.919,2.606,4.283a3.157,3.157,0,0,1-3.461,2.959,3.6,3.6,0,0,1-3.715-2.656,5.708,5.708,0,0,1-.238-1.359c0-.567-.266-.686-.488-.686-.48,0-.524.67-.541.923l-.006.086c-.032.525-.131,2.12-.131,3.571,0,.683.127.907.646,1.139a9.5,9.5,0,0,0,4.09.742,7.984,7.984,0,0,0,4.476-1.176,5.863,5.863,0,0,0,2.671-5.016C121.192,13.372,119.951,11.4,116.612,8.858Z"/><path class="a" d="M131.412,8.858l-.766-.583c-2.386-1.837-2.823-2.734-2.823-3.837,0-1.611,1.2-2.651,3.049-2.651a3.263,3.263,0,0,1,2.822,1.282,3.205,3.205,0,0,1,.665,1.7c0,.59.266.714.488.714.514,0,.514-.656.514-1.048,0-1.532.054-2.372.086-2.873.014-.208.024-.354.024-.462,0-.417-.4-.507-.54-.54a13.386,13.386,0,0,0-3.7-.48c-3.854,0-6.545,2.249-6.545,5.469,0,2.436,1.237,4.457,4.137,6.756l1.262,1c2.17,1.726,2.6,2.919,2.6,4.283a3.156,3.156,0,0,1-3.46,2.959,3.6,3.6,0,0,1-3.716-2.656,5.716,5.716,0,0,1-.239-1.359c0-.567-.264-.686-.486-.686-.48,0-.524.67-.541.923l-.006.1c-.036.579-.133,2.118-.133,3.56,0,.683.127.907.648,1.139a9.5,9.5,0,0,0,4.089.742,7.978,7.978,0,0,0,4.475-1.176,5.86,5.86,0,0,0,2.673-5.016C135.992,13.373,134.751,11.4,131.412,8.858Z"/><path class="a" d="M44.41,21a10.2,10.2,0,0,1-1.3-.109c-.634-.09-.782-.45-.858-1.17-.1-1.187-.1-3.343-.1-6.071V8.75c0-4.236,0-5,.052-5.885.05-.941.242-1.279.787-1.387a3.9,3.9,0,0,1,.742-.08c.418,0,.629-.166.629-.491,0-.435-.571-.435-.758-.435-.548,0-1.263.026-1.9.049-.514.018-.979.035-1.268.035-.35,0-.891-.018-1.469-.037C38.3.5,37.582.472,37.052.472c-.25,0-.836,0-.836.435,0,.325.212.491.629.491a3.213,3.213,0,0,1,.885.1c.341.084.664.306.723,1.363.051.884.051,1.648.051,5.884v4.895c0,2.727,0,4.881-.129,6.041-.08.822-.228,1.126-.592,1.2a3.764,3.764,0,0,1-.773.1h-.7a3.622,3.622,0,0,1-.651-.077,4.947,4.947,0,0,1-2.769-1.818c-1.317-1.481-2.813-3.5-4.707-6.055l-.806-1.087c2.351-2.081,3.357-3.962,3.357-6.26a5.13,5.13,0,0,0-1.855-3.981A8.091,8.091,0,0,0,23.97.472c-.395,0-1.07.02-1.761.041-.718.021-1.453.043-1.9.043-.209,0-.58-.012-1.036-.028C18.522.5,17.593.472,16.744.472c-.235,0-.785,0-.785.463,0,.307.22.463.654.463a4.791,4.791,0,0,1,.967.078c.7.159.9.457.953,1.39.051.884.051,1.648.051,5.884v4.895c0,2.544,0,4.743-.127,5.894-.105.816-.229,1.273-.593,1.35a3.728,3.728,0,0,1-.886.106c-.52,0-.629.236-.629.435,0,.183.095.492.733.492.619,0,1.452-.03,2.121-.054.461-.016.85-.03,1.05-.03.131,0,.434.009.836.021.789.025,1.983.063,2.985.063.637,0,.733-.309.733-.492,0-.2-.138-.435-.525-.435a11.283,11.283,0,0,1-1.243-.109c-.6-.086-.753-.519-.833-1.343-.129-1.155-.129-3.366-.129-5.927l-.01-.4,2.267.054c.164,0,.233.027.3.117.189.233.676.973,1.239,1.831.419.636.885,1.346,1.324,1.991,1.532,2.253,2.514,3.514,3.631,4.153a5.21,5.21,0,0,0,2.888.558H37c.6,0,1.375-.027,2.062-.051.51-.017.958-.033,1.214-.033.273,0,.687.013,1.192.028.808.025,1.814.056,2.864.056.655,0,.706-.377.706-.492C45.038,21.3,44.977,21,44.41,21ZM27.242,7.081c0,2.493-.91,3.578-1.452,4a2.281,2.281,0,0,1-1.716.429,6.256,6.256,0,0,1-1.886-.259c-.079-.036-.111-.051-.111-.308V2.492c0-.16.021-.166.087-.186a5.636,5.636,0,0,1,1.313-.1C24.875,2.205,27.242,3.231,27.242,7.081Z"/></svg>